# xmcd
#
# Track frame offsets:
#	212
#	13225
#	26565
#	39772
#	53382
#	67392
#	81762
#	95427
#	110267
#	125305
#	140465
#	155020
#	168222
#	182697
#	197240
#	211667
#
# Disc length: 3006 seconds
# Revision: 0
# Processed by: cddbd v1.5.2PL0 Copyright (c) Steve Scherf et al.
# Submitted via: dBpowerAMP V12.0
#
DISCID=cf0bbc10
DTITLE=The Skillet Lickers, Gid Tanner - Old Time Fiddle Tunes and Songs from North Georgia
DYEAR=1996
DGENRE=Folk
TTITLE0=Rocky Pallet
TTITLE1=Rock That Cradle Lucy
TTITLE2=Soldier's Joy
TTITLE3=Sal's Gone to the Cider Mill
TTITLE4=Ride Old Buck to Water
TTITLE5=Molly Put the Kettle On
TTITLE6=Hell Broke Loose in Georgia
TTITLE7=Fly Around My Pretty Little Miss
TTITLE8=Liberty
TTITLE9=Devilish Mary
TTITLE10=Cackling Hen and Rooster Too
TTITLE11=Miss McLeod's Reel
TTITLE12=Pretty Little Widow
TTITLE13=Dixie
TTITLE14=Broken Down Gambler
TTITLE15=Leather Breeches
EXTD=
EXTT0=
EXTT1=
EXTT2=
EXTT3=
EXTT4=
EXTT5=
EXTT6=
EXTT7=
EXTT8=
EXTT9=
EXTT10=
EXTT11=
EXTT12=
EXTT13=
EXTT14=
EXTT15=
PLAYORDER=
